<mxfile host="app.diagrams.net" modified="2022-03-24T15:16:33.766Z" agent="5.0 (Windows)" etag="4x-kysFeOqafzBBL1j_F" version="17.2.1" type="github">
  <diagram id="IwJc-QEqkXl9kFJ9T2ZH" name="Page-1">
    <mxGraphModel dx="1278" dy="564" grid="1" gridSize="10" guides="1" tooltips="1" connect="1" arrows="1" fold="1" page="1" pageScale="1" pageWidth="827" pageHeight="1169" math="0" shadow="0">
      <root>
        <mxCell id="E9ZvQ36hueqxSMFOdhHU-0" />
        <mxCell id="E9ZvQ36hueqxSMFOdhHU-1" parent="E9ZvQ36hueqxSMFOdhHU-0" />
        <mxCell id="AZOoN2vLzfq_cbHg0gJf-1" value="Főoldal - Bejelentkezés" style="rounded=1;whiteSpace=wrap;html=1;" parent="E9ZvQ36hueqxSMFOdhHU-1" vertex="1">
          <mxGeometry x="330" y="30" width="150" height="60" as="geometry" />
        </mxCell>
        <mxCell id="AZOoN2vLzfq_cbHg0gJf-14" value="Alkalmazott" style="swimlane;fontStyle=0;childLayout=stackLayout;horizontal=1;startSize=30;horizontalStack=0;resizeParent=1;resizeParentMax=0;resizeLast=0;collapsible=1;marginBottom=0;" parent="E9ZvQ36hueqxSMFOdhHU-1" vertex="1">
          <mxGeometry x="220" y="150" width="140" height="180" as="geometry" />
        </mxCell>
        <mxCell id="AZOoN2vLzfq_cbHg0gJf-15" value="Naptár" style="text;strokeColor=none;fillColor=none;align=left;verticalAlign=middle;spacingLeft=4;spacingRight=4;overflow=hidden;points=[[0,0.5],[1,0.5]];portConstraint=eastwest;rotatable=0;" parent="AZOoN2vLzfq_cbHg0gJf-14" vertex="1">
          <mxGeometry y="30" width="140" height="30" as="geometry" />
        </mxCell>
        <mxCell id="AZOoN2vLzfq_cbHg0gJf-16" value="Kérések" style="text;strokeColor=none;fillColor=none;align=left;verticalAlign=middle;spacingLeft=4;spacingRight=4;overflow=hidden;points=[[0,0.5],[1,0.5]];portConstraint=eastwest;rotatable=0;" parent="AZOoN2vLzfq_cbHg0gJf-14" vertex="1">
          <mxGeometry y="60" width="140" height="30" as="geometry" />
        </mxCell>
        <mxCell id="AZOoN2vLzfq_cbHg0gJf-17" value="Értesítések" style="text;strokeColor=none;fillColor=none;align=left;verticalAlign=middle;spacingLeft=4;spacingRight=4;overflow=hidden;points=[[0,0.5],[1,0.5]];portConstraint=eastwest;rotatable=0;" parent="AZOoN2vLzfq_cbHg0gJf-14" vertex="1">
          <mxGeometry y="90" width="140" height="30" as="geometry" />
        </mxCell>
        <mxCell id="V_oYJRXi3sltvzXVO3vy-5" value="Jelenlétik" style="text;strokeColor=none;fillColor=none;align=left;verticalAlign=middle;spacingLeft=4;spacingRight=4;overflow=hidden;points=[[0,0.5],[1,0.5]];portConstraint=eastwest;rotatable=0;" vertex="1" parent="AZOoN2vLzfq_cbHg0gJf-14">
          <mxGeometry y="120" width="140" height="30" as="geometry" />
        </mxCell>
        <mxCell id="V_oYJRXi3sltvzXVO3vy-6" value="Személyes" style="text;strokeColor=none;fillColor=none;align=left;verticalAlign=middle;spacingLeft=4;spacingRight=4;overflow=hidden;points=[[0,0.5],[1,0.5]];portConstraint=eastwest;rotatable=0;" vertex="1" parent="AZOoN2vLzfq_cbHg0gJf-14">
          <mxGeometry y="150" width="140" height="30" as="geometry" />
        </mxCell>
        <mxCell id="AZOoN2vLzfq_cbHg0gJf-28" value="" style="edgeStyle=segmentEdgeStyle;endArrow=classic;html=1;rounded=0;" parent="E9ZvQ36hueqxSMFOdhHU-1" edge="1">
          <mxGeometry width="50" height="50" relative="1" as="geometry">
            <mxPoint x="220" y="310" as="sourcePoint" />
            <mxPoint x="180" y="350" as="targetPoint" />
          </mxGeometry>
        </mxCell>
        <mxCell id="AZOoN2vLzfq_cbHg0gJf-29" value="&lt;div&gt;&lt;ul&gt;&lt;li&gt;Személyes adatok módosítása&lt;/li&gt;&lt;/ul&gt;&lt;/div&gt;&lt;div align=&quot;left&quot;&gt;&lt;ul&gt;&lt;li&gt;Kijelentkezés&lt;br&gt;&lt;/li&gt;&lt;/ul&gt;&lt;/div&gt;" style="rounded=0;whiteSpace=wrap;html=1;" parent="E9ZvQ36hueqxSMFOdhHU-1" vertex="1">
          <mxGeometry x="60" y="350" width="210" height="50" as="geometry" />
        </mxCell>
        <mxCell id="AZOoN2vLzfq_cbHg0gJf-31" value="" style="endArrow=classic;html=1;rounded=0;entryX=0.5;entryY=0;entryDx=0;entryDy=0;exitX=0.25;exitY=1;exitDx=0;exitDy=0;" parent="E9ZvQ36hueqxSMFOdhHU-1" source="AZOoN2vLzfq_cbHg0gJf-1" edge="1">
          <mxGeometry width="50" height="50" relative="1" as="geometry">
            <mxPoint x="370" y="80" as="sourcePoint" />
            <mxPoint x="300" y="150" as="targetPoint" />
          </mxGeometry>
        </mxCell>
        <mxCell id="AZOoN2vLzfq_cbHg0gJf-32" value="Vezető" style="swimlane;fontStyle=0;childLayout=stackLayout;horizontal=1;startSize=30;horizontalStack=0;resizeParent=1;resizeParentMax=0;resizeLast=0;collapsible=1;marginBottom=0;" parent="E9ZvQ36hueqxSMFOdhHU-1" vertex="1">
          <mxGeometry x="450" y="150" width="140" height="150" as="geometry" />
        </mxCell>
        <mxCell id="AZOoN2vLzfq_cbHg0gJf-36" value="Naptár" style="text;strokeColor=none;fillColor=none;align=left;verticalAlign=middle;spacingLeft=4;spacingRight=4;overflow=hidden;points=[[0,0.5],[1,0.5]];portConstraint=eastwest;rotatable=0;" parent="AZOoN2vLzfq_cbHg0gJf-32" vertex="1">
          <mxGeometry y="30" width="140" height="30" as="geometry" />
        </mxCell>
        <mxCell id="AZOoN2vLzfq_cbHg0gJf-33" value="Beosztottjaim" style="text;strokeColor=none;fillColor=none;align=left;verticalAlign=middle;spacingLeft=4;spacingRight=4;overflow=hidden;points=[[0,0.5],[1,0.5]];portConstraint=eastwest;rotatable=0;" parent="AZOoN2vLzfq_cbHg0gJf-32" vertex="1">
          <mxGeometry y="60" width="140" height="30" as="geometry" />
        </mxCell>
        <mxCell id="AZOoN2vLzfq_cbHg0gJf-34" value="Értesítések" style="text;strokeColor=none;fillColor=none;align=left;verticalAlign=middle;spacingLeft=4;spacingRight=4;overflow=hidden;points=[[0,0.5],[1,0.5]];portConstraint=eastwest;rotatable=0;" parent="AZOoN2vLzfq_cbHg0gJf-32" vertex="1">
          <mxGeometry y="90" width="140" height="30" as="geometry" />
        </mxCell>
        <mxCell id="V_oYJRXi3sltvzXVO3vy-7" value="Személyes" style="text;strokeColor=none;fillColor=none;align=left;verticalAlign=middle;spacingLeft=4;spacingRight=4;overflow=hidden;points=[[0,0.5],[1,0.5]];portConstraint=eastwest;rotatable=0;" vertex="1" parent="AZOoN2vLzfq_cbHg0gJf-32">
          <mxGeometry y="120" width="140" height="30" as="geometry" />
        </mxCell>
        <mxCell id="AZOoN2vLzfq_cbHg0gJf-37" value="" style="endArrow=classic;html=1;rounded=0;entryX=0.5;entryY=0;entryDx=0;entryDy=0;exitX=0.673;exitY=1.017;exitDx=0;exitDy=0;exitPerimeter=0;" parent="E9ZvQ36hueqxSMFOdhHU-1" source="AZOoN2vLzfq_cbHg0gJf-1" edge="1">
          <mxGeometry width="50" height="50" relative="1" as="geometry">
            <mxPoint x="430" y="100" as="sourcePoint" />
            <mxPoint x="510" y="150" as="targetPoint" />
          </mxGeometry>
        </mxCell>
        <mxCell id="AZOoN2vLzfq_cbHg0gJf-38" value="&lt;div&gt;&lt;ul&gt;&lt;li&gt;Személyes adatok módosítása&lt;/li&gt;&lt;/ul&gt;&lt;/div&gt;&lt;div align=&quot;left&quot;&gt;&lt;ul&gt;&lt;li&gt;Kijelentkezés&lt;br&gt;&lt;/li&gt;&lt;/ul&gt;&lt;/div&gt;" style="rounded=0;whiteSpace=wrap;html=1;" parent="E9ZvQ36hueqxSMFOdhHU-1" vertex="1">
          <mxGeometry x="550" y="330" width="210" height="50" as="geometry" />
        </mxCell>
        <mxCell id="AZOoN2vLzfq_cbHg0gJf-39" value="" style="edgeStyle=segmentEdgeStyle;endArrow=classic;html=1;rounded=0;entryX=0.5;entryY=0;entryDx=0;entryDy=0;" parent="E9ZvQ36hueqxSMFOdhHU-1" target="AZOoN2vLzfq_cbHg0gJf-38" edge="1">
          <mxGeometry width="50" height="50" relative="1" as="geometry">
            <mxPoint x="590" y="290" as="sourcePoint" />
            <mxPoint x="640" y="240" as="targetPoint" />
          </mxGeometry>
        </mxCell>
        <mxCell id="AZOoN2vLzfq_cbHg0gJf-40" value="&lt;div align=&quot;left&quot;&gt;Főoldal:&lt;/div&gt;&lt;div align=&quot;left&quot;&gt;- Sikertelen bejelentkezés esetén a főoldalon marad&lt;/div&gt;&lt;div&gt;&lt;br&gt;&lt;/div&gt;&lt;div&gt;- Sikeres bejelentkezés után átirányít a jogosultságtól függően&lt;/div&gt;&lt;div&gt;az alkalmazott/Vezető oldalra&lt;br&gt;&lt;/div&gt;" style="text;html=1;align=left;verticalAlign=middle;resizable=1;points=[];autosize=1;strokeColor=none;fillColor=none;" parent="E9ZvQ36hueqxSMFOdhHU-1" vertex="1">
          <mxGeometry x="249" y="440" width="330" height="90" as="geometry" />
        </mxCell>
        <mxCell id="AZOoN2vLzfq_cbHg0gJf-42" value="&lt;ul&gt;&lt;li&gt;Naptár: a felhasználó látja a munkarendet (havi nézet)&lt;/li&gt;&lt;/ul&gt;&lt;div&gt;&lt;ul&gt;&lt;li&gt;Kérelmek: szabadnapot/táppénzt kérelmezhet, &lt;br&gt;&lt;/li&gt;&lt;/ul&gt;&lt;span style=&quot;white-space: pre&quot;&gt;	&lt;/span&gt;látja a megmaradt/felhasznált szabadnapjait&lt;div&gt;&lt;ul&gt;&lt;li&gt;Értesítések: elfogadott/elutasított szabadság-kérelmek&lt;/li&gt;&lt;/ul&gt;&lt;/div&gt;&lt;/div&gt;&lt;div&gt;&lt;ul&gt;&lt;li&gt;Jelenlétik: előző havi munkabeosztások&lt;/li&gt;&lt;/ul&gt;&lt;/div&gt;&lt;div&gt;&lt;ul&gt;&lt;li&gt;Személyes adatok módosítása: jelszó megváltoztatása&lt;/li&gt;&lt;/ul&gt;&lt;/div&gt;&lt;div&gt;&lt;ul&gt;&lt;li&gt;Kijelentkezés: vissza a Főoldalra&lt;br&gt;&lt;/li&gt;&lt;/ul&gt;&lt;/div&gt;" style="text;html=1;align=left;verticalAlign=middle;resizable=1;points=[];autosize=1;strokeColor=none;fillColor=none;" parent="E9ZvQ36hueqxSMFOdhHU-1" vertex="1">
          <mxGeometry x="20" y="550" width="340" height="200" as="geometry" />
        </mxCell>
        <mxCell id="V_oYJRXi3sltvzXVO3vy-8" value="&lt;ul&gt;&lt;li&gt;Naptár: a felhasználó látja a munkarendet (havi nézet)&lt;/li&gt;&lt;/ul&gt;&lt;div&gt;&lt;ul&gt;&lt;li&gt;Beosztottjaim: látja a beosztottak listáját&lt;br&gt;&lt;/li&gt;&lt;/ul&gt;&lt;div&gt;&lt;ul&gt;&lt;li&gt;Értesítések: beérkezett szabadság-kérelmek, lehetősége van&lt;/li&gt;&lt;/ul&gt;&lt;span style=&quot;white-space: pre&quot;&gt;	&lt;/span&gt;&amp;nbsp;ezek elfogadására&lt;br&gt;&lt;/div&gt;&lt;/div&gt;&lt;div&gt;&lt;ul&gt;&lt;li&gt;Személyes adatok módosítása: jelszó megváltoztatása&lt;/li&gt;&lt;/ul&gt;&lt;/div&gt;&lt;div&gt;&lt;ul&gt;&lt;li&gt;Kijelentkezés: vissza a Főoldalra&lt;br&gt;&lt;/li&gt;&lt;/ul&gt;&lt;/div&gt;" style="text;html=1;align=left;verticalAlign=middle;resizable=1;points=[];autosize=1;strokeColor=none;fillColor=none;" vertex="1" parent="E9ZvQ36hueqxSMFOdhHU-1">
          <mxGeometry x="414" y="565" width="370" height="170" as="geometry" />
        </mxCell>
      </root>
    </mxGraphModel>
  </diagram>
</mxfile>
